# xmcd
#
# Track frame offsets:
#	150
#	16055
#	31130
#	47567
#	64540
#	80232
#	95807
#	111135
#	125125
#	139010
#	152907
#	167515
#
# Disc length: 2433 seconds
#
# Revision: 0
# Processed by: cddbd v1.5.2PL0 Copyright (c) Steve Scherf et al.
# Submitted via: EasyCDDAExtractor 16.0.6.1
#
DISCID=9a097f0c
DTITLE=Συλλογικός δίσκος - Συννεφιασμένη Κυριακή-Β. Τσιτσάνης
DYEAR=1965
DGENRE=Λαϊκή
TTITLE0=Καζαντζίδης Στέλιος-Λύδια Γ.-Μαρινέλλα - Συννεφιασμένη Κυριακή [ζεϊμπέ
TTITLE0=κικο]
TTITLE1=Πάνου Πόλυ-Διονυσίου Σ.-Τσιτσάνης Β. - Η αχάριστη [χασάπικο]
TTITLE2=Καζαντζίδης Στέλιος - Παίξε Χρήστο το μπουζούκι [ζεϊμπέκικο]
TTITLE3=Πάνου Πόλυ - Μέσα στην πολλή σκοτούρα [ζεϊμπέκικο]
TTITLE4=Μπιθικώτσης Γρηγόρης-Τσιτσάνης Βασίλης - Στα Τρίκαλα, στα δυό στενά [ζ
TTITLE4=εϊμπέκικο]
TTITLE5=Γκρέϋ Καίτη-Τσιτσάνης Β.-Ρεπάνης Α. - Για τα μάτια π' αγαπώ [χασαποσέρ
TTITLE5=βικο]
TTITLE6=Ρεπάνης Αντώνης-Τσιτσάνης Βασίλης - Αρχόντισσα [χασάπικο]
TTITLE7=Γκρέϋ Καίτη-Τσιτσάνης Β.-Ρεπάνης Α. - Στρώσε μου, να κοιμηθώ [ζεϊμπέκι
TTITLE7=κο]
TTITLE8=Καζαντζίδης Στέλιος - Ίσως αύριο [ζεϊμπέκικο]
TTITLE9=Μπιθικώτσης Γρηγόρης-Γκίκα Βούλα - Ό,τι κι αν πω, δεν σε ξεχνώ [χασάπι
TTITLE9=κο]
TTITLE10=Μπιθικώτσης Γρηγόρης-Τσιτσάνης Βασίλης - Η δροσούλα [ζεϊμπέκικο]
TTITLE11=Λύδια Γιώτα-Καζαντζίδης Σ.-Μαρινέλλα - Τα καβουράκια [ζεϊμπέκικο]
EXTD=
EXTT0=
EXTT1=
EXTT2=
EXTT3=
EXTT4=
EXTT5=
EXTT6=
EXTT7=
EXTT8=
EXTT9=
EXTT10=
EXTT11=
PLAYORDER=
